<svg xmlns="http://www.w3.org/2000/svg" viewBox="0 0 1920 1080">
    <defs>
      <filter id="grain" x="-10%" y="-10%" width="120%" height="120%">
        <feTurbulence type="fractalNoise" baseFrequency=".72" numOctaves="3" seed="12"/>
        <feColorMatrix type="saturate" values="0"/>
      </filter>
      <filter id="soft" x="-80%" y="-80%" width="260%" height="260%">
        <feGaussianBlur stdDeviation="28"/>
      </filter>
      <filter id="glow" x="-120%" y="-120%" width="340%" height="340%">
        <feGaussianBlur stdDeviation="13" result="b"/>
        <feMerge><feMergeNode in="b"/><feMergeNode in="SourceGraphic"/></feMerge>
      </filter>
      <linearGradient id="gold" x1="0" y1="0" x2="1" y2="1">
        <stop offset="0" stop-color="#8D6828"/><stop offset=".48" stop-color="#F5D994"/>
        <stop offset="1" stop-color="#A97B2D"/>
      </linearGradient>


<linearGradient id="mSky" x1="0" y1="0" x2="0" y2="1">
 <stop offset="0" stop-color="#EDF7FB"/><stop offset=".62" stop-color="#D6EAF3"/><stop offset="1" stop-color="#B8D5E2"/>
</linearGradient>
<radialGradient id="mLight"><stop stop-color="#FFF9E9" stop-opacity=".96"/><stop offset="1" stop-color="#FFF9E9" stop-opacity="0"/></radialGradient>

    </defs>
<rect width="1920" height="1080" fill="url(#mSky)"/>
<ellipse cx="960" cy="500" rx="510" ry="430" fill="url(#mLight)"/>
<g opacity=".16" fill="#486F72">
 <circle cx="1740" cy="90" r="260"/><circle cx="1560" cy="210" r="210"/><circle cx="250" cy="130" r="250"/>
</g>
<path d="M0 920 Q420 870 900 915 T1920 900V1080H0Z" fill="#6D8E8D"/>
<!-- 大人の手と子どもの手。顔を描かず、記憶を受け取る余白を残す -->
<path d="M420 340 C560 365 690 470 790 590 C845 655 874 718 930 756 C970 783 1015 744 998 702 C970 634 900 583 858 515 C808 434 770 350 700 300Z" fill="#D5B19B"/>
<path d="M1505 702 C1370 660 1284 652 1190 690 C1112 721 1066 778 1006 778 C960 778 938 733 965 700 C1010 644 1078 627 1140 575 C1198 526 1238 465 1292 430 C1358 387 1430 402 1518 446Z" fill="#C98F76"/>
<path d="M942 718 C980 690 1020 693 1052 728" fill="none" stroke="#A66E5C" stroke-width="4" opacity=".55"/>
<circle cx="960" cy="706" r="148" fill="none" stroke="url(#gold)" stroke-width="2" opacity=".52"/>
<circle cx="960" cy="706" r="178" fill="none" stroke="#FFFFFF" stroke-width="1" opacity=".58"/>
<path d="M770 870 C875 833 1045 834 1155 872" fill="none" stroke="#F8F4E8" stroke-width="5" opacity=".8"/>
<g transform="translate(960 245) rotate(0)" opacity="0.92"><ellipse cy="-30.2" rx="14.5" ry="29.0" fill="#FFFDF7" stroke="#D7DEE3" stroke-width="1.2" transform="rotate(0)"/><ellipse cy="-30.2" rx="14.5" ry="29.0" fill="#FFFDF7" stroke="#D7DEE3" stroke-width="1.2" transform="rotate(72)"/><ellipse cy="-30.2" rx="14.5" ry="29.0" fill="#FFFDF7" stroke="#D7DEE3" stroke-width="1.2" transform="rotate(144)"/><ellipse cy="-30.2" rx="14.5" ry="29.0" fill="#FFFDF7" stroke="#D7DEE3" stroke-width="1.2" transform="rotate(216)"/><ellipse cy="-30.2" rx="14.5" ry="29.0" fill="#FFFDF7" stroke="#D7DEE3" stroke-width="1.2" transform="rotate(288)"/><circle r="7.5" fill="#C89A3A"/></g>
<rect width="1920" height="1080" fill="#fff" opacity=".035" filter="url(#grain)"/></svg>