<svg xmlns="http://www.w3.org/2000/svg" viewBox="0 0 1920 1080"><defs><linearGradient id="night1" x1="0" y1="0" x2="0" y2="1"><stop offset="0" stop-color="#1B2A5E"/><stop offset="0.6" stop-color="#3F3D7A"/><stop offset="1" stop-color="#7A4E8C"/></linearGradient><radialGradient id="moong"><stop offset="0" stop-color="#FFF6D8" stop-opacity="0.9"/><stop offset="1" stop-color="#FFF6D8" stop-opacity="0"/></radialGradient></defs><rect width="1920" height="1080" fill="url(#night1)"/><circle cx="1275" cy="297" r="2.3" fill="#FFF6D8" opacity="0.86"/><circle cx="1382" cy="270" r="2.3" fill="#FFF6D8" opacity="0.60"/><circle cx="773" cy="266" r="1.8" fill="#FFF6D8" opacity="0.60"/><circle cx="1805" cy="610" r="3.8" fill="#FFF6D8" opacity="0.72"/><circle cx="578" cy="493" r="1.5" fill="#FFF6D8" opacity="0.52"/><circle cx="825" cy="522" r="3.1" fill="#FFF6D8" opacity="0.63"/><circle cx="849" cy="192" r="2.7" fill="#FFF6D8" opacity="0.89"/><circle cx="1528" cy="153" r="1.7" fill="#FFF6D8" opacity="0.66"/><circle cx="1215" cy="302" r="3.5" fill="#FFF6D8" opacity="0.80"/><circle cx="1292" cy="202" r="2.0" fill="#FFF6D8" opacity="0.36"/><circle cx="470" cy="428" r="3.6" fill="#FFF6D8" opacity="0.39"/><circle cx="796" cy="567" r="2.0" fill="#FFF6D8" opacity="0.77"/><circle cx="949" cy="220" r="3.1" fill="#FFF6D8" opacity="0.35"/><circle cx="1442" cy="693" r="1.8" fill="#FFF6D8" opacity="0.61"/><circle cx="338" cy="862" r="2.8" fill="#FFF6D8" opacity="0.38"/><circle cx="478" cy="764" r="2.6" fill="#FFF6D8" opacity="0.83"/><circle cx="1282" cy="889" r="3.0" fill="#FFF6D8" opacity="0.92"/><circle cx="1712" cy="551" r="3.3" fill="#FFF6D8" opacity="0.65"/><circle cx="1595" cy="493" r="3.7" fill="#FFF6D8" opacity="0.80"/><circle cx="911" cy="233" r="2.1" fill="#FFF6D8" opacity="0.73"/><circle cx="1470" cy="469" r="3.1" fill="#FFF6D8" opacity="0.51"/><circle cx="149" cy="257" r="2.2" fill="#FFF6D8" opacity="0.54"/><circle cx="1037" cy="125" r="2.1" fill="#FFF6D8" opacity="0.77"/><circle cx="1356" cy="58" r="2.5" fill="#FFF6D8" opacity="0.68"/><circle cx="798" cy="186" r="2.6" fill="#FFF6D8" opacity="0.89"/><circle cx="1121" cy="626" r="3.6" fill="#FFF6D8" opacity="0.81"/><circle cx="730" cy="5" r="2.4" fill="#FFF6D8" opacity="0.80"/><circle cx="1639" cy="858" r="2.5" fill="#FFF6D8" opacity="0.80"/><circle cx="1049" cy="543" r="2.1" fill="#FFF6D8" opacity="0.48"/><circle cx="837" cy="26" r="2.3" fill="#FFF6D8" opacity="0.76"/><circle cx="776" cy="149" r="2.7" fill="#FFF6D8" opacity="0.43"/><circle cx="1195" cy="24" r="2.5" fill="#FFF6D8" opacity="0.69"/><circle cx="52" cy="578" r="1.8" fill="#FFF6D8" opacity="0.63"/><circle cx="97" cy="341" r="2.0" fill="#FFF6D8" opacity="0.55"/><circle cx="1462" cy="341" r="3.4" fill="#FFF6D8" opacity="0.85"/><circle cx="484" cy="74" r="1.5" fill="#FFF6D8" opacity="0.67"/><circle cx="1920" cy="315" r="3.1" fill="#FFF6D8" opacity="0.82"/><circle cx="1251" cy="679" r="3.9" fill="#FFF6D8" opacity="0.47"/><circle cx="39" cy="137" r="1.8" fill="#FFF6D8" opacity="0.75"/><circle cx="1083" cy="196" r="3.2" fill="#FFF6D8" opacity="0.81"/><circle cx="322" cy="547" r="3.4" fill="#FFF6D8" opacity="0.42"/><circle cx="1573" cy="868" r="1.8" fill="#FFF6D8" opacity="0.37"/><circle cx="599" cy="610" r="3.9" fill="#FFF6D8" opacity="0.59"/><circle cx="1373" cy="68" r="3.2" fill="#FFF6D8" opacity="0.73"/><circle cx="196" cy="695" r="3.6" fill="#FFF6D8" opacity="0.71"/><circle cx="232" cy="885" r="3.5" fill="#FFF6D8" opacity="0.56"/><circle cx="822" cy="334" r="2.8" fill="#FFF6D8" opacity="0.55"/><circle cx="1631" cy="740" r="1.8" fill="#FFF6D8" opacity="0.93"/><circle cx="1220" cy="746" r="3.3" fill="#FFF6D8" opacity="0.61"/><circle cx="1409" cy="869" r="2.2" fill="#FFF6D8" opacity="0.83"/><circle cx="1033" cy="435" r="2.6" fill="#FFF6D8" opacity="0.79"/><circle cx="515" cy="767" r="3.6" fill="#FFF6D8" opacity="0.40"/><circle cx="1693" cy="219" r="2.7" fill="#FFF6D8" opacity="0.72"/><circle cx="728" cy="26" r="3.6" fill="#FFF6D8" opacity="0.46"/><circle cx="407" cy="718" r="2.4" fill="#FFF6D8" opacity="0.88"/><circle cx="1346" cy="249" r="1.5" fill="#FFF6D8" opacity="0.92"/><circle cx="164" cy="648" r="2.7" fill="#FFF6D8" opacity="0.80"/><circle cx="1326" cy="581" r="2.7" fill="#FFF6D8" opacity="0.83"/><circle cx="179" cy="199" r="3.2" fill="#FFF6D8" opacity="0.53"/><circle cx="1117" cy="426" r="2.8" fill="#FFF6D8" opacity="0.61"/><circle cx="1432" cy="298" r="3.3" fill="#FFF6D8" opacity="0.51"/><circle cx="483" cy="109" r="2.0" fill="#FFF6D8" opacity="0.42"/><circle cx="1029" cy="686" r="2.0" fill="#FFF6D8" opacity="0.48"/><circle cx="930" cy="652" r="3.9" fill="#FFF6D8" opacity="0.66"/><circle cx="543" cy="90" r="2.0" fill="#FFF6D8" opacity="0.49"/><circle cx="345" cy="13" r="2.8" fill="#FFF6D8" opacity="0.51"/><circle cx="1871" cy="498" r="3.2" fill="#FFF6D8" opacity="0.43"/><circle cx="1667" cy="442" r="3.7" fill="#FFF6D8" opacity="0.69"/><circle cx="901" cy="396" r="2.0" fill="#FFF6D8" opacity="0.38"/><circle cx="1807" cy="430" r="3.6" fill="#FFF6D8" opacity="0.59"/><circle cx="1560" cy="240" r="200" fill="url(#moong)"/><path d="M1620,140 A130,130 0 1,0 1620,360 A105,105 0 1,1 1620,140 Z" fill="#FFF3C4"/><g transform="translate(238.89860430676777,582.8452524492789)"><path d="M0,50 Q14,99 0,143" stroke="#E8E4F0" stroke-width="4" fill="none" opacity="0.7"/><ellipse rx="55" ry="63" fill="#FF8FA3"/><ellipse cx="-17" cy="-19" rx="12" ry="18" fill="#FFFFFF" opacity="0.45"/><path d="M-9,62 L0,47 L9,62 Z" fill="#FF8FA3"/></g><g transform="translate(329.0371013683862,540.217342134121)"><path d="M0,63 Q17,125 0,181" stroke="#E8E4F0" stroke-width="4" fill="none" opacity="0.7"/><ellipse rx="70" ry="80" fill="#FFD166"/><ellipse cx="-21" cy="-24" rx="15" ry="22" fill="#FFFFFF" opacity="0.45"/><path d="M-11,78 L0,60 L11,78 Z" fill="#FFD166"/></g><g transform="translate(1342.701747252264,255.80899981533543)"><path d="M0,87 Q24,173 0,250" stroke="#E8E4F0" stroke-width="4" fill="none" opacity="0.7"/><ellipse rx="96" ry="111" fill="#7BD1C9"/><ellipse cx="-29" cy="-34" rx="21" ry="31" fill="#FFFFFF" opacity="0.45"/><path d="M-15,108 L0,83 L15,108 Z" fill="#7BD1C9"/></g><g transform="translate(877.5811814915553,686.0741310997885)"><path d="M0,59 Q16,117 0,169" stroke="#E8E4F0" stroke-width="4" fill="none" opacity="0.7"/><ellipse rx="65" ry="75" fill="#B79CED"/><ellipse cx="-20" cy="-23" rx="14" ry="21" fill="#FFFFFF" opacity="0.45"/><path d="M-10,73 L0,56 L10,73 Z" fill="#B79CED"/></g><g transform="translate(777.0870421562614,468.3292575288027)"><path d="M0,70 Q19,140 0,202" stroke="#E8E4F0" stroke-width="4" fill="none" opacity="0.7"/><ellipse rx="78" ry="89" fill="#6FB6FF"/><ellipse cx="-23" cy="-27" rx="17" ry="25" fill="#FFFFFF" opacity="0.45"/><path d="M-12,87 L0,67 L12,87 Z" fill="#6FB6FF"/></g><g transform="translate(1182.1999989914161,813.6200066987507)"><path d="M0,63 Q17,125 0,181" stroke="#E8E4F0" stroke-width="4" fill="none" opacity="0.7"/><ellipse rx="70" ry="80" fill="#FFA76B"/><ellipse cx="-21" cy="-24" rx="15" ry="22" fill="#FFFFFF" opacity="0.45"/><path d="M-11,78 L0,60 L11,78 Z" fill="#FFA76B"/></g><g transform="translate(895.2327852865783,570.1637838368833)"><path d="M0,85 Q24,171 0,247" stroke="#E8E4F0" stroke-width="4" fill="none" opacity="0.7"/><ellipse rx="95" ry="109" fill="#FF8FA3"/><ellipse cx="-28" cy="-33" rx="21" ry="30" fill="#FFFFFF" opacity="0.45"/><path d="M-15,106 L0,82 L15,106 Z" fill="#FF8FA3"/></g><g transform="translate(1287.1082403904536,312.98425972707287)"><path d="M0,58 Q16,116 0,167" stroke="#E8E4F0" stroke-width="4" fill="none" opacity="0.7"/><ellipse rx="64" ry="74" fill="#FFD166"/><ellipse cx="-19" cy="-22" rx="14" ry="21" fill="#FFFFFF" opacity="0.45"/><path d="M-10,72 L0,55 L10,72 Z" fill="#FFD166"/></g><g transform="translate(942.5137646304439,280.5165397637614)"><path d="M0,56 Q16,112 0,161" stroke="#E8E4F0" stroke-width="4" fill="none" opacity="0.7"/><ellipse rx="62" ry="71" fill="#7BD1C9"/><ellipse cx="-19" cy="-22" rx="14" ry="20" fill="#FFFFFF" opacity="0.45"/><path d="M-10,70 L0,53 L10,70 Z" fill="#7BD1C9"/></g><g transform="translate(240.0778426814015,181.71246246584687)"><path d="M0,70 Q20,141 0,203" stroke="#E8E4F0" stroke-width="4" fill="none" opacity="0.7"/><ellipse rx="78" ry="90" fill="#B79CED"/><ellipse cx="-23" cy="-27" rx="17" ry="25" fill="#FFFFFF" opacity="0.45"/><path d="M-13,88 L0,67 L13,88 Z" fill="#B79CED"/></g><g transform="translate(862.5734341434759,366.4059449798577)"><path d="M0,59 Q16,118 0,170" stroke="#E8E4F0" stroke-width="4" fill="none" opacity="0.7"/><ellipse rx="65" ry="75" fill="#6FB6FF"/><ellipse cx="-20" cy="-23" rx="14" ry="21" fill="#FFFFFF" opacity="0.45"/><path d="M-10,73 L0,56 L10,73 Z" fill="#6FB6FF"/></g><path d="M0,1010 Q480,960 960,1000 T1920,990 V1080 H0 Z" fill="#141B3F"/></svg>