<svg xmlns="http://www.w3.org/2000/svg" viewBox="0 0 1920 1080">
    <defs>
      <filter id="grain" x="-10%" y="-10%" width="120%" height="120%">
        <feTurbulence type="fractalNoise" baseFrequency=".72" numOctaves="3" seed="12"/>
        <feColorMatrix type="saturate" values="0"/>
      </filter>
      <filter id="soft" x="-80%" y="-80%" width="260%" height="260%">
        <feGaussianBlur stdDeviation="28"/>
      </filter>
      <filter id="glow" x="-120%" y="-120%" width="340%" height="340%">
        <feGaussianBlur stdDeviation="13" result="b"/>
        <feMerge><feMergeNode in="b"/><feMergeNode in="SourceGraphic"/></feMerge>
      </filter>
      <linearGradient id="gold" x1="0" y1="0" x2="1" y2="1">
        <stop offset="0" stop-color="#8D6828"/><stop offset=".48" stop-color="#F5D994"/>
        <stop offset="1" stop-color="#A97B2D"/>
      </linearGradient>


<linearGradient id="aDusk" x1="0" y1="0" x2="0" y2="1"><stop stop-color="#151827"/><stop offset=".58" stop-color="#343044"/><stop offset="1" stop-color="#765748"/></linearGradient>
<radialGradient id="lamp"><stop stop-color="#FFF2C4"/><stop offset=".22" stop-color="#EAB760" stop-opacity=".9"/><stop offset="1" stop-color="#D18A3C" stop-opacity="0"/></radialGradient>

    </defs>
<rect width="1920" height="1080" fill="url(#aDusk)"/><circle cx="1745" cy="640" r="2.2" fill="#E9DDBE" opacity="0.66"/><circle cx="1760" cy="309" r="1.6" fill="#E9DDBE" opacity="0.60"/><circle cx="958" cy="717" r="1.4" fill="#E9DDBE" opacity="0.38"/><circle cx="1488" cy="553" r="1.5" fill="#E9DDBE" opacity="0.48"/><circle cx="1021" cy="377" r="1.3" fill="#E9DDBE" opacity="0.28"/><circle cx="940" cy="534" r="1.2" fill="#E9DDBE" opacity="0.45"/><circle cx="525" cy="462" r="2.7" fill="#E9DDBE" opacity="0.39"/><circle cx="805" cy="338" r="1.5" fill="#E9DDBE" opacity="0.62"/><circle cx="1305" cy="462" r="2.2" fill="#E9DDBE" opacity="0.85"/><circle cx="928" cy="737" r="2.1" fill="#E9DDBE" opacity="0.76"/><circle cx="405" cy="430" r="1.7" fill="#E9DDBE" opacity="0.71"/><circle cx="343" cy="693" r="2.6" fill="#E9DDBE" opacity="0.67"/><circle cx="1310" cy="626" r="1.6" fill="#E9DDBE" opacity="0.84"/><circle cx="156" cy="411" r="1.2" fill="#E9DDBE" opacity="0.51"/><circle cx="520" cy="299" r="1.0" fill="#E9DDBE" opacity="0.75"/><circle cx="1569" cy="705" r="0.8" fill="#E9DDBE" opacity="0.55"/><circle cx="1850" cy="324" r="1.7" fill="#E9DDBE" opacity="0.61"/><circle cx="331" cy="279" r="0.9" fill="#E9DDBE" opacity="0.66"/><circle cx="1211" cy="403" r="1.5" fill="#E9DDBE" opacity="0.59"/><circle cx="763" cy="430" r="1.4" fill="#E9DDBE" opacity="0.36"/><circle cx="284" cy="650" r="1.6" fill="#E9DDBE" opacity="0.67"/><circle cx="398" cy="509" r="1.4" fill="#E9DDBE" opacity="0.80"/><circle cx="1606" cy="530" r="1.9" fill="#E9DDBE" opacity="0.85"/><circle cx="418" cy="564" r="2.4" fill="#E9DDBE" opacity="0.48"/><circle cx="1025" cy="481" r="2.7" fill="#E9DDBE" opacity="0.31"/><circle cx="1842" cy="625" r="1.5" fill="#E9DDBE" opacity="0.76"/><circle cx="313" cy="196" r="1.7" fill="#E9DDBE" opacity="0.27"/><circle cx="1423" cy="192" r="2.4" fill="#E9DDBE" opacity="0.83"/><circle cx="151" cy="346" r="1.1" fill="#E9DDBE" opacity="0.69"/><circle cx="364" cy="619" r="1.4" fill="#E9DDBE" opacity="0.26"/><circle cx="1813" cy="714" r="1.4" fill="#E9DDBE" opacity="0.69"/><circle cx="62" cy="250" r="0.8" fill="#E9DDBE" opacity="0.72"/><circle cx="1381" cy="734" r="1.4" fill="#E9DDBE" opacity="0.53"/><circle cx="330" cy="350" r="1.7" fill="#E9DDBE" opacity="0.73"/><circle cx="1109" cy="121" r="1.2" fill="#E9DDBE" opacity="0.67"/><circle cx="1354" cy="102" r="1.1" fill="#E9DDBE" opacity="0.71"/><circle cx="1607" cy="575" r="1.9" fill="#E9DDBE" opacity="0.60"/><circle cx="328" cy="240" r="2.5" fill="#E9DDBE" opacity="0.58"/><circle cx="503" cy="99" r="2.4" fill="#E9DDBE" opacity="0.45"/><circle cx="777" cy="76" r="2.7" fill="#E9DDBE" opacity="0.47"/><circle cx="297" cy="65" r="2.5" fill="#E9DDBE" opacity="0.78"/><circle cx="842" cy="667" r="2.4" fill="#E9DDBE" opacity="0.78"/><circle cx="434" cy="472" r="1.7" fill="#E9DDBE" opacity="0.42"/><circle cx="1681" cy="401" r="0.9" fill="#E9DDBE" opacity="0.68"/><circle cx="1419" cy="381" r="2.1" fill="#E9DDBE" opacity="0.72"/><circle cx="1558" cy="399" r="2.7" fill="#E9DDBE" opacity="0.60"/><circle cx="1029" cy="101" r="0.9" fill="#E9DDBE" opacity="0.33"/><circle cx="935" cy="555" r="1.5" fill="#E9DDBE" opacity="0.39"/><circle cx="1192" cy="422" r="1.3" fill="#E9DDBE" opacity="0.26"/><circle cx="757" cy="55" r="2.7" fill="#E9DDBE" opacity="0.27"/><circle cx="220" cy="442" r="2.0" fill="#E9DDBE" opacity="0.72"/><circle cx="284" cy="122" r="1.7" fill="#E9DDBE" opacity="0.64"/><circle cx="1452" cy="249" r="1.8" fill="#E9DDBE" opacity="0.28"/><circle cx="1045" cy="175" r="2.5" fill="#E9DDBE" opacity="0.67"/><circle cx="154" cy="580" r="1.5" fill="#E9DDBE" opacity="0.72"/><circle cx="1081" cy="497" r="1.2" fill="#E9DDBE" opacity="0.52"/><circle cx="179" cy="656" r="1.8" fill="#E9DDBE" opacity="0.44"/><circle cx="1337" cy="667" r="1.7" fill="#E9DDBE" opacity="0.67"/><circle cx="1884" cy="542" r="2.6" fill="#E9DDBE" opacity="0.42"/><circle cx="511" cy="143" r="2.7" fill="#E9DDBE" opacity="0.83"/><circle cx="404" cy="663" r="2.3" fill="#E9DDBE" opacity="0.48"/><circle cx="231" cy="275" r="1.3" fill="#E9DDBE" opacity="0.65"/><circle cx="728" cy="538" r="2.3" fill="#E9DDBE" opacity="0.72"/><circle cx="1797" cy="250" r="2.3" fill="#E9DDBE" opacity="0.34"/><circle cx="780" cy="277" r="2.6" fill="#E9DDBE" opacity="0.67"/><circle cx="656" cy="101" r="2.2" fill="#E9DDBE" opacity="0.47"/><circle cx="645" cy="134" r="1.7" fill="#E9DDBE" opacity="0.64"/><circle cx="35" cy="224" r="2.7" fill="#E9DDBE" opacity="0.49"/><circle cx="1071" cy="202" r="1.9" fill="#E9DDBE" opacity="0.74"/><circle cx="593" cy="243" r="1.1" fill="#E9DDBE" opacity="0.50"/><circle cx="281" cy="148" r="2.1" fill="#E9DDBE" opacity="0.31"/><circle cx="1262" cy="512" r="1.1" fill="#E9DDBE" opacity="0.36"/><circle cx="843" cy="127" r="2.2" fill="#E9DDBE" opacity="0.47"/><circle cx="1221" cy="115" r="2.8" fill="#E9DDBE" opacity="0.30"/><circle cx="444" cy="753" r="1.6" fill="#E9DDBE" opacity="0.38"/><circle cx="1861" cy="462" r="2.8" fill="#E9DDBE" opacity="0.56"/>
<circle cx="960" cy="380" r="260" fill="url(#lamp)" opacity=".34"/>
<path d="M0 900 Q430 820 800 900 Q960 940 1120 900 Q1490 820 1920 900V1080H0Z" fill="#11131B"/>
<path d="M960 1080 C850 980 820 920 815 835 C810 742 870 674 960 610 C1050 674 1110 742 1105 835 C1100 920 1070 980 960 1080Z" fill="#B9874C" opacity=".18"/>

    <g transform="translate(960 930) scale(1.18)" fill="#171522">
      <circle cx="-56" cy="-207" r="31"/><path d="M-91-174 Q-56-194-21-174 L-13 0H-105Z"/>
      <circle cx="48" cy="-224" r="34"/><path d="M10-189 Q48-208 88-184 L101 0H-7Z"/>
      <path d="M-25-158 Q5-179 32-158" fill="none" stroke="#171522" stroke-width="18" stroke-linecap="round"/>
    </g>
<g transform="translate(960 235)">
 <circle r="150" fill="url(#lamp)" opacity=".75"/>
 <path d="M-56-76H56L42 74H-42Z" fill="#D69B4B" stroke="#F0D08B" stroke-width="3"/>
 <path d="M-68-78H68M-42 76H42" stroke="#6F4A2A" stroke-width="11"/>
 <rect x="-3" y="-180" width="6" height="102" fill="#9A7448"/>
</g>
<path d="M650 1000 Q960 1045 1270 1000" fill="none" stroke="url(#gold)" stroke-width="2" opacity=".75"/>
<rect width="1920" height="1080" fill="#fff" opacity=".035" filter="url(#grain)"/></svg>